<svg width="712" height="828" viewBox="0 0 712 828" fill="none" xmlns="http://www.w3.org/2000/svg">
<path d="M356.352 105.472L132.096 793.6V792.576C128 802.816 122.197 811.349 114.688 818.176C107.861 824.32 99.3281 827.392 89.0881 827.392C83.6268 827.392 78.1655 826.709 72.7041 825.344C67.9255 824.661 62.8055 823.637 57.3441 822.272H58.3681C19.4561 809.984 5.12012 788.139 15.3601 756.736L248.832 47.104C252.245 36.1813 258.048 26.9653 266.24 19.456C275.115 11.9467 285.355 7.50934 296.96 6.14398C308.565 4.09597 319.829 2.73063 330.752 2.04797C341.675 0.682658 350.208 0 356.352 0C362.496 0 371.029 0.682658 381.952 2.04797C392.875 2.73063 404.139 3.75464 415.744 5.12C425.301 6.48531 434.517 11.6053 443.392 20.48C452.949 29.3547 460.117 38.2293 464.896 47.104C503.125 164.523 541.696 282.965 580.608 402.432C620.203 521.216 659.115 639.317 697.344 756.736C706.902 788.139 692.565 809.984 654.336 822.272C648.875 823.637 643.755 824.661 638.976 825.344C634.88 826.709 630.101 827.392 624.64 827.392C615.083 827.392 606.208 824.32 598.016 818.176C590.507 811.349 585.045 802.816 581.632 792.576V793.6L356.352 105.472ZM433.152 572.416C433.152 594.261 425.301 613.035 409.6 628.736C394.581 643.755 376.149 651.264 354.304 651.264C332.459 651.264 314.027 643.755 299.008 628.736C283.989 613.035 276.48 594.261 276.48 572.416C276.48 550.571 283.989 532.139 299.008 517.12C314.027 501.419 332.459 493.568 354.304 493.568C376.149 493.568 394.581 501.419 409.6 517.12C425.301 532.139 433.152 550.571 433.152 572.416Z" fill="black"/>
</svg>
